HIERARCHY
ROOT Hips
{
    OFFSET 0.000000 0.000000 0.000000
    CHANNELS 6 Xposition Yposition Zposition Zrotation Xrotation Yrotation
    JOINT Spine
    {
        OFFSET -0.000000 8.339920 0.000000
        CHANNELS 3 Zrotation Xrotation Yrotation
        JOINT Spine1
        {
            OFFSET -0.000000 25.214485 0.000000
            CHANNELS 3 Zrotation Xrotation Yrotation
            JOINT Neck
            {
                OFFSET -0.000000 25.110935 2.282812
                CHANNELS 3 Zrotation Xrotation Yrotation
                JOINT Head
                {
                    OFFSET -0.000000 14.238888 -2.034127
                    CHANNELS 3 Zrotation Xrotation Yrotation
                    End Site
                    {
                        OFFSET -0.000000 25.426584 0.000000
                    }
                }
            }
            JOINT LeftShoulder
            {
                OFFSET 4.025024 23.158985 -0.185822
                CHANNELS 3 Zrotation Xrotation Yrotation
                JOINT LeftArm
                {
                    OFFSET 11.674057 0.000000 0.000000
                    CHANNELS 3 Zrotation Xrotation Yrotation
                    JOINT LeftForeArm
                    {
                        OFFSET 31.688633 0.000000 0.000000
                        CHANNELS 3 Zrotation Xrotation Yrotation
                        JOINT LeftHand
                        {
                            OFFSET 29.704493 0.000000 0.000000
                            CHANNELS 3 Zrotation Xrotation Yrotation
                            End Site
                            {
                                OFFSET 15.255952 0.000000 0.000000
                            }
                        }
                    }
                }
            }
            JOINT RightShoulder
            {
                OFFSET -4.099539 23.158985 -0.185822
                CHANNELS 3 Zrotation Xrotation Yrotation
                JOINT RightArm
                {
                    OFFSET -11.674057 0.000000 0.000000
                    CHANNELS 3 Zrotation Xrotation Yrotation
                    JOINT RightForeArm
                    {
                        OFFSET -31.688633 0.000000 0.000000
                        CHANNELS 3 Zrotation Xrotation Yrotation
                        JOINT RightHand
                        {
                            OFFSET -29.704493 0.000000 0.000000
                            CHANNELS 3 Zrotation Xrotation Yrotation
                            End Site
                            {
                                OFFSET -15.255952 0.000000 0.000000
                            }
                        }
                    }
                }
            }
        }
    }
    JOINT LeftUpLeg
    {
        OFFSET 10.170634 0.000000 0.000000
        CHANNELS 3 Zrotation Xrotation Yrotation
        JOINT LeftLeg
        {
            OFFSET -0.000000 -41.352962 0.000000
            CHANNELS 3 Zrotation Xrotation Yrotation
            JOINT LeftFoot
            {
                OFFSET -0.000000 -47.535004 0.000000
                CHANNELS 3 Zrotation Xrotation Yrotation
                JOINT LeftToeBase
                {
                    OFFSET -0.000000 -6.610912 15.255952
                    CHANNELS 3 Zrotation Xrotation Yrotation
                    End Site
                    {
                        OFFSET -0.000000 0.000000 4.068254
                    }
                }
            }
        }
    }
    JOINT RightUpLeg
    {
        OFFSET -10.170634 0.000000 0.000000
        CHANNELS 3 Zrotation Xrotation Yrotation
        JOINT RightLeg
        {
            OFFSET -0.000000 -41.352962 0.000000
            CHANNELS 3 Zrotation Xrotation Yrotation
            JOINT RightFoot
            {
                OFFSET -0.000000 -47.535004 0.000000
                CHANNELS 3 Zrotation Xrotation Yrotation
                JOINT RightToeBase
                {
                    OFFSET -0.000000 -6.610912 15.255952
                    CHANNELS 3 Zrotation Xrotation Yrotation
                    End Site
                    {
                        OFFSET -0.000000 0.000000 4.068254
                    }
                }
            }
        }
    }
}
MOTION
Frames:    5
Frame Time:    0.008333
29.002703    94.445251    45.194172    -2.161212    -0.948397    88.968178    0.234336    -6.866711    -0.860771    3.538384    2.513278    -0.952455    -9.258019    26.566275    -5.801049    9.521579    -3.959114    -5.292248    12.532383    0.963981    0.126740    -21.878418    -3.771125    5.204715    3.155757    -9.133694    1.834713    0.182933    -9.182932    0.419057    -22.397404    1.580634    -6.160748    21.064104    0.744714    4.586940    -1.547146    -3.479325    -1.267923    -9.077066    -3.589332    1.172731    1.444278    6.390732    -0.309696    -0.617679    -4.022938    3.336472    0.765818    -4.302042    10.565653    0.000000    0.000000    0.000000    4.031622    5.680390    1.552045    -2.295523    -2.557458    -0.561617    -1.560127    -4.466575    -10.583097    0.000000    0.000000    0.000000    
29.010141    94.445419    45.191711    -2.160425    -0.947240    88.968803    0.217840    -6.873079    -0.864371    3.571785    2.530846    -0.956401    -9.263358    26.550417    -5.674894    9.466132    -3.921747    -5.172526    12.506957    0.960970    0.128435    -21.935202    -3.637642    5.191841    3.257466    -9.222902    1.837388    0.130377    -9.274019    0.407510    -22.416161    1.579034    -6.168444    21.069281    0.750046    4.599649    -1.560627    -3.468857    -1.271751    -8.885427    -3.577814    1.182014    1.441167    6.396999    -0.309597    -0.615127    -4.024981    3.303753    0.764688    -4.301370    10.593909    0.000000    0.000000    0.000000    3.991083    5.670315    1.694043    -2.231190    -2.502918    -0.412978    -1.646237    -4.500036    -10.861814    0.000000    0.000000    0.000000    
29.017511    94.446228    45.188095    -2.161323    -0.948016    88.959045    0.243553    -6.869575    -0.864337    3.533594    2.526619    -0.956932    -9.203497    26.648434    -5.502785    9.361236    -4.083555    -5.001641    12.541741    0.965485    0.134106    -21.962711    -3.651076    5.191461    3.264961    -9.235832    1.828808    0.180713    -9.286693    0.383339    -22.406361    1.559919    -6.152499    21.075266    0.764058    4.588899    -1.562842    -3.487944    -1.236294    -9.115705    -3.601975    1.221300    1.436053    6.400455    -0.295235    -0.605817    -4.004786    3.331492    0.732092    -4.320184    10.549397    0.000000    0.000000    0.000000    4.020513    5.694650    1.577741    -2.288517    -2.561661    -0.475055    -1.589473    -4.457901    -10.675291    0.000000    0.000000    0.000000    
29.025707    94.446808    45.185493    -2.159837    -0.951031    88.955650    0.239830    -6.877892    -0.860304    3.542078    2.550920    -0.953620    -9.280612    26.691847    -5.322968    9.476519    -4.147652    -4.800353    12.560121    0.971501    0.139551    -21.987942    -3.677603    5.164890    3.266445    -9.240164    1.827216    0.184290    -9.290995    0.374213    -22.385689    1.556243    -6.170847    21.050680    0.747864    4.601317    -1.563110    -3.479542    -1.229725    -9.075145    -3.593830    1.231274    1.435369    6.407738    -0.295437    -0.600588    -4.006678    3.342080    0.737313    -4.318401    10.535315    0.000000    0.000000    0.000000    4.024297    5.703259    1.560195    -2.292073    -2.575480    -0.600479    -1.544300    -4.460197    -10.538403    0.000000    0.000000    0.000000    
29.033598    94.447235    45.184334    -2.156660    -0.953561    88.957672    0.244127    -6.871375    -0.868521    3.546460    2.554022    -0.962272    -9.274782    26.656555    -5.165093    9.400325    -4.090053    -4.650017    12.570429    0.960551    0.144225    -22.009912    -3.649571    5.184220    3.270992    -9.271473    1.803060    0.200457    -9.321704    0.340757    -22.394407    1.541952    -6.160850    21.051563    0.739079    4.582835    -1.561869    -3.461043    -1.188698    -8.993674    -3.568933    1.168262    1.438824    6.417221    -0.301224    -0.604716    -4.005933    3.310579    0.727787    -4.323247    10.578332    0.000000    0.000000    0.000000    4.028434    5.715657    1.541016    -2.258037    -2.527704    -0.669599    -1.613552    -4.511527    -10.560097    0.000000    0.000000    0.000000    
